<mxfile host="app.diagrams.net" agent="Mozilla/5.0 (Windows NT 10.0; Win64; x64) AppleWebKit/537.36 (KHTML, like Gecko) Chrome/132.0.0.0 Safari/537.36 OPR/117.0.0.0" version="26.2.12">
  <diagram name="Vista de Componentes - Gesti贸n de Reserva Hotelera" id="lY2g-x9jhAUqLdVO9Rgw">
    <mxGraphModel grid="1" page="1" gridSize="10" guides="1" tooltips="1" connect="1" arrows="1" fold="1" pageScale="1" pageWidth="850" pageHeight="1100" math="0" shadow="0">
      <root>
        <mxCell id="0" />
        <mxCell id="1" parent="0" />
        <mxCell id="9F-M3pC2oSOO9bkCgMb4-18" value="" style="rounded=0;orthogonalLoop=1;jettySize=auto;html=1;endArrow=halfCircle;endFill=0;endSize=6;strokeWidth=1;sketch=0;entryX=1;entryY=1;entryDx=0;entryDy=0;entryPerimeter=0;exitX=0.067;exitY=0.48;exitDx=0;exitDy=0;exitPerimeter=0;" edge="1" parent="1" source="9F-M3pC2oSOO9bkCgMb4-21" target="9F-M3pC2oSOO9bkCgMb4-20">
          <mxGeometry relative="1" as="geometry">
            <mxPoint x="570" y="310" as="sourcePoint" />
            <mxPoint x="430" y="540" as="targetPoint" />
          </mxGeometry>
        </mxCell>
        <mxCell id="9F-M3pC2oSOO9bkCgMb4-19" value="" style="rounded=0;orthogonalLoop=1;jettySize=auto;html=1;endArrow=oval;endFill=0;sketch=0;sourcePerimeterSpacing=0;targetPerimeterSpacing=0;endSize=10;exitX=1;exitY=0.75;exitDx=0;exitDy=0;" edge="1" parent="1" source="9F-M3pC2oSOO9bkCgMb4-25" target="9F-M3pC2oSOO9bkCgMb4-20">
          <mxGeometry relative="1" as="geometry">
            <mxPoint x="250" y="330" as="sourcePoint" />
          </mxGeometry>
        </mxCell>
        <mxCell id="9F-M3pC2oSOO9bkCgMb4-20" value="detalles cliente" style="ellipse;whiteSpace=wrap;html=1;align=center;aspect=fixed;fillColor=none;strokeColor=none;resizable=0;perimeter=centerPerimeter;rotatable=0;allowArrows=0;points=[];outlineConnect=1;" vertex="1" parent="1">
          <mxGeometry x="390" y="310" width="10" height="10" as="geometry" />
        </mxCell>
        <mxCell id="9F-M3pC2oSOO9bkCgMb4-21" value="&lt;font style=&quot;font-size: 14px;&quot;&gt;Reserva&lt;/font&gt;" style="shape=module;align=left;spacingLeft=20;align=center;verticalAlign=top;whiteSpace=wrap;html=1;" vertex="1" parent="1">
          <mxGeometry x="560" y="290" width="180" height="50" as="geometry" />
        </mxCell>
        <mxCell id="9F-M3pC2oSOO9bkCgMb4-22" value="&lt;font style=&quot;font-size: 14px;&quot;&gt;Factura&lt;/font&gt;" style="shape=module;align=left;spacingLeft=20;align=center;verticalAlign=top;whiteSpace=wrap;html=1;" vertex="1" parent="1">
          <mxGeometry x="335" y="130" width="180" height="50" as="geometry" />
        </mxCell>
        <mxCell id="9F-M3pC2oSOO9bkCgMb4-23" value="&lt;font style=&quot;font-size: 14px;&quot;&gt;Gesti贸n habitaciones&lt;/font&gt;" style="shape=module;align=left;spacingLeft=20;align=center;verticalAlign=top;whiteSpace=wrap;html=1;" vertex="1" parent="1">
          <mxGeometry x="560" y="470" width="180" height="50" as="geometry" />
        </mxCell>
        <mxCell id="9F-M3pC2oSOO9bkCgMb4-24" value="&lt;font style=&quot;font-size: 14px;&quot;&gt;Base de datos&lt;/font&gt;" style="shape=module;align=left;spacingLeft=20;align=center;verticalAlign=top;whiteSpace=wrap;html=1;" vertex="1" parent="1">
          <mxGeometry x="850" y="290" width="180" height="50" as="geometry" />
        </mxCell>
        <mxCell id="9F-M3pC2oSOO9bkCgMb4-25" value="&lt;font style=&quot;font-size: 14px;&quot;&gt;Interfaz usuario&lt;/font&gt;" style="shape=module;align=left;spacingLeft=20;align=center;verticalAlign=top;whiteSpace=wrap;html=1;" vertex="1" parent="1">
          <mxGeometry x="60" y="280" width="180" height="50" as="geometry" />
        </mxCell>
        <mxCell id="9F-M3pC2oSOO9bkCgMb4-26" value="&lt;font style=&quot;font-size: 14px;&quot;&gt;Interfaz administrador&lt;/font&gt;" style="shape=module;align=left;spacingLeft=20;align=center;verticalAlign=top;whiteSpace=wrap;html=1;" vertex="1" parent="1">
          <mxGeometry x="70" y="470" width="180" height="50" as="geometry" />
        </mxCell>
        <mxCell id="9F-M3pC2oSOO9bkCgMb4-30" value="" style="ellipse;whiteSpace=wrap;html=1;aspect=fixed;" vertex="1" parent="1">
          <mxGeometry x="420" y="30" width="30" height="30" as="geometry" />
        </mxCell>
        <mxCell id="9F-M3pC2oSOO9bkCgMb4-31" value="transacci贸n online" style="text;html=1;align=center;verticalAlign=middle;resizable=0;points=[];autosize=1;strokeColor=none;fillColor=none;" vertex="1" parent="1">
          <mxGeometry x="375" width="120" height="30" as="geometry" />
        </mxCell>
        <mxCell id="9F-M3pC2oSOO9bkCgMb4-32" value="" style="endArrow=none;html=1;rounded=0;exitX=0.561;exitY=-0.02;exitDx=0;exitDy=0;entryX=0.5;entryY=1;entryDx=0;entryDy=0;exitPerimeter=0;" edge="1" parent="1" source="9F-M3pC2oSOO9bkCgMb4-22" target="9F-M3pC2oSOO9bkCgMb4-30">
          <mxGeometry width="50" height="50" relative="1" as="geometry">
            <mxPoint x="760" y="460" as="sourcePoint" />
            <mxPoint x="810" y="410" as="targetPoint" />
          </mxGeometry>
        </mxCell>
        <mxCell id="9F-M3pC2oSOO9bkCgMb4-33" value="" style="endArrow=open;endSize=12;dashed=1;html=1;rounded=0;exitX=1;exitY=0.5;exitDx=0;exitDy=0;entryX=0.5;entryY=1;entryDx=0;entryDy=0;" edge="1" parent="1" source="9F-M3pC2oSOO9bkCgMb4-23" target="9F-M3pC2oSOO9bkCgMb4-24">
          <mxGeometry width="160" relative="1" as="geometry">
            <mxPoint x="650" y="400" as="sourcePoint" />
            <mxPoint x="950" y="490" as="targetPoint" />
          </mxGeometry>
        </mxCell>
        <mxCell id="9F-M3pC2oSOO9bkCgMb4-34" value="" style="endArrow=open;endSize=12;dashed=1;html=1;rounded=0;entryX=1;entryY=0.5;entryDx=0;entryDy=0;exitX=0.033;exitY=0.48;exitDx=0;exitDy=0;exitPerimeter=0;" edge="1" parent="1" source="9F-M3pC2oSOO9bkCgMb4-23" target="9F-M3pC2oSOO9bkCgMb4-26">
          <mxGeometry width="160" relative="1" as="geometry">
            <mxPoint x="370" y="510" as="sourcePoint" />
            <mxPoint x="530" y="510" as="targetPoint" />
          </mxGeometry>
        </mxCell>
        <mxCell id="9F-M3pC2oSOO9bkCgMb4-35" value="" style="endArrow=open;endSize=12;dashed=1;html=1;rounded=0;exitX=1;exitY=0.5;exitDx=0;exitDy=0;" edge="1" parent="1" source="9F-M3pC2oSOO9bkCgMb4-21" target="9F-M3pC2oSOO9bkCgMb4-24">
          <mxGeometry x="-0.0003" width="160" relative="1" as="geometry">
            <mxPoint x="720" y="314.5" as="sourcePoint" />
            <mxPoint x="880" y="314.5" as="targetPoint" />
            <mxPoint as="offset" />
          </mxGeometry>
        </mxCell>
        <mxCell id="9F-M3pC2oSOO9bkCgMb4-36" value="" style="endArrow=open;endSize=12;dashed=1;html=1;rounded=0;entryX=0.25;entryY=0;entryDx=0;entryDy=0;exitX=0.5;exitY=1;exitDx=0;exitDy=0;" edge="1" parent="1" source="9F-M3pC2oSOO9bkCgMb4-22" target="9F-M3pC2oSOO9bkCgMb4-21">
          <mxGeometry width="160" relative="1" as="geometry">
            <mxPoint x="370" y="510" as="sourcePoint" />
            <mxPoint x="530" y="510" as="targetPoint" />
          </mxGeometry>
        </mxCell>
        <mxCell id="9F-M3pC2oSOO9bkCgMb4-37" value="" style="endArrow=open;endSize=12;dashed=1;html=1;rounded=0;exitX=0.067;exitY=0.6;exitDx=0;exitDy=0;exitPerimeter=0;entryX=1;entryY=0.25;entryDx=0;entryDy=0;" edge="1" parent="1" source="9F-M3pC2oSOO9bkCgMb4-21" target="9F-M3pC2oSOO9bkCgMb4-26">
          <mxGeometry width="160" relative="1" as="geometry">
            <mxPoint x="370" y="510" as="sourcePoint" />
            <mxPoint x="530" y="510" as="targetPoint" />
          </mxGeometry>
        </mxCell>
        <mxCell id="9F-M3pC2oSOO9bkCgMb4-39" value="&lt;font style=&quot;font-size: 14px;&quot;&gt;Habitaci贸n&lt;/font&gt;" style="shape=module;align=left;spacingLeft=20;align=center;verticalAlign=top;whiteSpace=wrap;html=1;" vertex="1" parent="1">
          <mxGeometry x="560" y="130" width="180" height="50" as="geometry" />
        </mxCell>
        <mxCell id="9F-M3pC2oSOO9bkCgMb4-40" value="" style="endArrow=open;endSize=12;dashed=1;html=1;rounded=0;entryX=0.556;entryY=0;entryDx=0;entryDy=0;entryPerimeter=0;exitX=0.544;exitY=1;exitDx=0;exitDy=0;exitPerimeter=0;" edge="1" parent="1" source="9F-M3pC2oSOO9bkCgMb4-39" target="9F-M3pC2oSOO9bkCgMb4-21">
          <mxGeometry width="160" relative="1" as="geometry">
            <mxPoint x="560" y="220" as="sourcePoint" />
            <mxPoint x="720" y="220" as="targetPoint" />
          </mxGeometry>
        </mxCell>
      </root>
    </mxGraphModel>
  </diagram>
</mxfile>
